<svg width="26" height="26" viewBox="0 0 26 26" fill="none" xmlns="http://www.w3.org/2000/svg">
<path d="M17.875 10.5625C17.875 10.347 17.9606 10.1403 18.113 9.98798C18.2653 9.8356 18.472 9.75 18.6875 9.75H20.3125C20.528 9.75 20.7347 9.8356 20.887 9.98798C21.0394 10.1403 21.125 10.347 21.125 10.5625V12.1875C21.125 12.403 21.0394 12.6097 20.887 12.762C20.7347 12.9144 20.528 13 20.3125 13H18.6875C18.472 13 18.2653 12.9144 18.113 12.762C17.9606 12.6097 17.875 12.403 17.875 12.1875V10.5625Z" fill="white"/>
<path d="M5.6875 0C5.90299 0 6.10965 0.0856024 6.26202 0.237976C6.4144 0.390349 6.5 0.597012 6.5 0.8125V1.625H19.5V0.8125C19.5 0.597012 19.5856 0.390349 19.738 0.237976C19.8903 0.0856024 20.097 0 20.3125 0C20.528 0 20.7347 0.0856024 20.887 0.237976C21.0394 0.390349 21.125 0.597012 21.125 0.8125V1.625H22.75C23.612 1.625 24.4386 1.96741 25.0481 2.5769C25.6576 3.1864 26 4.01305 26 4.875V22.75C26 23.612 25.6576 24.4386 25.0481 25.0481C24.4386 25.6576 23.612 26 22.75 26H3.25C2.38805 26 1.5614 25.6576 0.951903 25.0481C0.34241 24.4386 0 23.612 0 22.75V4.875C0 4.01305 0.34241 3.1864 0.951903 2.5769C1.5614 1.96741 2.38805 1.625 3.25 1.625H4.875V0.8125C4.875 0.597012 4.9606 0.390349 5.11298 0.237976C5.26535 0.0856024 5.47201 0 5.6875 0ZM1.625 6.5V22.75C1.625 23.181 1.7962 23.5943 2.10095 23.899C2.4057 24.2038 2.81902 24.375 3.25 24.375H22.75C23.181 24.375 23.5943 24.2038 23.899 23.899C24.2038 23.5943 24.375 23.181 24.375 22.75V6.5H1.625Z" fill="white"/>
</svg>
