<svg width="27" height="26" viewBox="0 0 27 26" fill="none" xmlns="http://www.w3.org/2000/svg">
<path d="M14.7725 0.551915C14.435 0.198524 13.9773 0 13.5 0C13.0227 0 12.565 0.198524 12.2275 0.551915L0.263915 13.0799C0.180243 13.1675 0.113872 13.2716 0.0685892 13.3861C0.0233066 13.5006 0 13.6233 0 13.7472C0 13.8711 0.0233066 13.9939 0.0685892 14.1084C0.113872 14.2229 0.180243 14.3269 0.263915 14.4145C0.432896 14.5915 0.662085 14.6909 0.901061 14.6909C1.01939 14.6909 1.13656 14.6665 1.24588 14.6191C1.3552 14.5717 1.45454 14.5022 1.53821 14.4145L2.70091 13.1949V23.1724C2.70091 23.9224 2.98535 24.6416 3.49165 25.1718C3.99796 25.7021 4.68466 26 5.40068 26H21.5993C22.3153 26 23.002 25.7021 23.5083 25.1718C24.0147 24.6416 24.2991 23.9224 24.2991 23.1724V13.1949L25.4618 14.4145C25.6308 14.5915 25.86 14.6909 26.0989 14.6909C26.3379 14.6909 26.5671 14.5915 26.7361 14.4145C26.9051 14.2375 27 13.9975 27 13.7472C27 13.4969 26.9051 13.2569 26.7361 13.0799L22.4992 8.64441V2.43696C22.4992 2.18699 22.4044 1.94725 22.2357 1.7705C22.0669 1.59374 21.838 1.49444 21.5993 1.49444H19.7995C19.5608 1.49444 19.3319 1.59374 19.1631 1.7705C18.9944 1.94725 18.8995 2.18699 18.8995 2.43696V4.87432L14.7725 0.551915ZM22.4992 11.3099V23.1724C22.4992 23.4224 22.4044 23.6621 22.2357 23.8389C22.0669 24.0157 21.838 24.115 21.5993 24.115H5.40068C5.16201 24.115 4.93311 24.0157 4.76434 23.8389C4.59557 23.6621 4.50076 23.4224 4.50076 23.1724V11.3099L13.5 1.88464L22.4992 11.3099Z" 
fill="black"/>
</svg>
