<svg width="91" height="23" viewBox="0 0 91 23" fill="none" xmlns="http://www.w3.org/2000/svg">
<path d="M16.4952 22V11.26H1.76523V22H0.325234V0.549999H1.76523V9.97H16.4952V0.549999H17.9352V22H16.4952ZM27.5528 19.15C25.5728 17.01 24.5828 14.38 24.5828 11.26C24.5828 8.14 25.5728 5.52 27.5528 3.4C29.5528 1.26 32.0728 0.189998 35.1128 0.189998C38.1528 0.189998 40.6728 1.26 42.6728 3.4C44.6728 5.52 45.6728 8.14 45.6728 11.26C45.6728 14.38 44.6728 17.01 42.6728 19.15C40.6728 21.29 38.1528 22.36 35.1128 22.36C32.0728 22.36 29.5528 21.29 27.5528 19.15ZM28.6328 4.33C26.9728 6.19 26.1428 8.5 26.1428 11.26C26.1428 14.02 26.9728 16.34 28.6328 18.22C30.3128 20.1 32.4728 21.04 35.1128 21.04C37.7728 21.04 39.9328 20.1 41.5928 18.22C43.2728 16.34 44.1128 14.02 44.1128 11.26C44.1128 8.5 43.2728 6.19 41.5928 4.33C39.9328 2.45 37.7728 1.51 35.1128 1.51C32.4528 1.51 30.2928 2.45 28.6328 4.33ZM62.4672 20.89H61.6572L55.3872 5.71C55.0272 4.87 54.7372 4.13 54.5172 3.49L54.2172 5.77L51.7572 22H50.2872L53.8272 0.37H54.6672L61.3572 16.27C61.6972 17.01 61.9672 17.71 62.1672 18.37C62.2272 18.15 62.5372 17.46 63.0972 16.3L70.5672 0.37H71.3772L74.6472 22H73.1472L70.8072 5.71C70.6472 4.69 70.5672 3.92 70.5672 3.4C70.5472 3.42 70.4972 3.52 70.4172 3.7C70.3572 3.86 70.2372 4.14 70.0572 4.54C69.8972 4.92 69.7272 5.32 69.5472 5.74L62.4672 20.89ZM80.5401 22V0.549999H90.5001V1.81H81.9801V9.7H89.6901V10.93H81.9801V20.74H90.8301V22H80.5401Z" fill="black"/>
</svg>
