<svg width="133" height="29" viewBox="0 0 133 29" fill="none" xmlns="http://www.w3.org/2000/svg">
<path d="M5.43754 19.6V0.549999H6.87754V18.64C6.87754 21.32 6.31754 23.46 5.19754 25.06C4.63754 25.88 4.06754 26.56 3.48754 27.1C2.90754 27.66 2.19754 28.24 1.35754 28.84L0.727539 27.91C3.86754 25.61 5.43754 22.84 5.43754 19.6ZM23.0332 22.3C20.2532 22.3 17.9232 21.33 16.0432 19.39C14.1632 17.45 13.2232 15.08 13.2232 12.28C13.2232 9.46 14.1632 7.08 16.0432 5.14C17.9232 3.2 20.2532 2.23 23.0332 2.23C25.8132 2.23 28.1432 3.2 30.0232 5.14C31.9032 7.08 32.8432 9.46 32.8432 12.28C32.8432 15.08 31.9032 17.45 30.0232 19.39C28.1432 21.33 25.8132 22.3 23.0332 22.3ZM23.0332 3.46C20.6332 3.46 18.6332 4.31 17.0332 6.01C15.4532 7.71 14.6632 9.8 14.6632 12.28C14.6632 14.74 15.4532 16.82 17.0332 18.52C18.6332 20.2 20.6332 21.04 23.0332 21.04C25.4532 21.04 27.4532 20.2 29.0332 18.52C30.6132 16.82 31.4032 14.74 31.4032 12.28C31.4032 9.8 30.6132 7.71 29.0332 6.01C27.4532 4.31 25.4532 3.46 23.0332 3.46ZM52.7168 19.99C51.3968 21.53 49.3868 22.3 46.6868 22.3C43.9868 22.3 41.9768 21.53 40.6568 19.99C39.3368 18.45 38.6768 16.32 38.6768 13.6V2.53H40.0568V13.6C40.0568 18.58 42.2668 21.07 46.6868 21.07C51.1068 21.07 53.3168 18.58 53.3168 13.6V2.53H54.6968V13.6C54.6968 16.32 54.0368 18.45 52.7168 19.99ZM61.7084 22V2.62C63.4284 2.48 64.8884 2.41 66.0884 2.41C67.9284 2.41 69.4484 2.89 70.6484 3.85C71.8484 4.79 72.4484 6.14 72.4484 7.9C72.4484 9.08 72.1084 10.17 71.4284 11.17C70.7484 12.17 69.9784 12.98 69.1184 13.6C71.4984 16.76 72.9684 18.65 73.5284 19.27C74.6684 20.45 75.9084 21.12 77.2484 21.28L77.2184 22.21C76.0984 22.19 75.1884 22.03 74.4884 21.73C73.7884 21.41 73.0884 20.88 72.3884 20.14C71.7084 19.4 70.1984 17.41 67.8584 14.17C66.2384 14.17 64.6484 14.12 63.0884 14.02V22H61.7084ZM67.1084 13.03C67.8884 13.03 68.7284 12.51 69.6284 11.47C70.5284 10.43 70.9784 9.22 70.9784 7.84C70.9784 6.46 70.5084 5.41 69.5684 4.69C68.6284 3.97 67.4084 3.61 65.9084 3.61C65.1084 3.61 64.1684 3.65 63.0884 3.73V12.88C64.5284 12.98 65.8684 13.03 67.1084 13.03ZM79.9604 22V2.41H80.6204L93.4004 17.11C93.8604 17.63 94.2804 18.15 94.6604 18.67C95.0604 19.17 95.2704 19.43 95.2904 19.45C95.2504 18.97 95.2304 18.03 95.2304 16.63V2.53H96.6104V22.12H95.9504L82.9304 7.18L81.2804 5.17C81.3204 5.57 81.3404 6.51 81.3404 7.99V22H79.9604ZM104.768 15.25L101.978 22H100.568L108.728 2.41H109.538L117.758 22H116.228L113.408 15.25H104.768ZM109.058 4.63C108.758 5.53 108.488 6.28 108.248 6.88L105.248 14.08H112.928L109.958 6.91C109.498 5.79 109.198 5.03 109.058 4.63ZM121.708 22V2.53H123.088V20.74H132.028V22H121.708Z" fill="white"/>
</svg>
