<svg width="26" height="28" viewBox="0 0 26 28" fill="none" xmlns="http://www.w3.org/2000/svg">
<path d="M8.66667 0H22.5333C22.9956 0 23.4578 0.115556 23.92 0.346667C24.2667 0.462222 24.6133 0.693333 24.96 1.04C25.3067 1.38667 25.5378 1.73333 25.6533 2.08C25.8844 2.54222 26 3.00444 26 3.46667V20.8C26 21.2622 25.8844 21.7244 25.6533 22.1867C25.5378 22.5333 25.3067 22.88 24.96 23.2267C24.6133 23.5733 24.2667 23.8044 23.92 23.92C23.4578 24.1511 22.9956 24.2667 22.5333 24.2667C22.5333 24.7289 22.4178 25.1911 22.1867 25.6533C22.0711 26 21.84 26.3467 21.4933 26.6933C21.1467 27.04 20.8 27.2711 20.4533 27.3867C19.9911 27.6178 19.5289 27.7333 19.0667 27.7333H5.2C4.73778 27.7333 4.27556 27.6178 3.81334 27.3867C3.46667 27.2711 3.12 27.04 2.77334 26.6933C2.42667 26.3467 2.19556 26 2.08 25.6533C1.84889 25.1911 1.73334 24.7289 1.73334 24.2667H3.46667C3.46667 24.4978 3.52445 24.7289 3.64 24.96C3.75556 25.1911 3.87112 25.3644 3.98667 25.48C4.10223 25.5956 4.27556 25.7111 4.50667 25.8267C4.73778 25.9422 4.96889 26 5.2 26H19.0667C19.2978 26 19.5289 25.9422 19.76 25.8267C19.9911 25.7111 20.1644 25.5956 20.28 25.48C20.3956 25.3644 20.5111 25.1911 20.6267 24.96C20.7422 24.7289 20.8 24.4978 20.8 24.2667V6.93333C20.8 6.70222 20.7422 6.47111 20.6267 6.24C20.5111 6.00889 20.3956 5.83556 20.28 5.72C20.1644 5.60444 19.9911 5.48889 19.76 5.37333C19.5289 5.25778 19.2978 5.2 19.0667 5.2H5.2C4.96889 5.2 4.73778 5.25778 4.50667 5.37333C4.27556 5.48889 4.10223 5.60444 3.98667 5.72C3.87112 5.83556 3.75556 6.00889 3.64 6.24C3.52445 6.47111 3.46667 6.70222 3.46667 6.93333H1.73334C1.73334 6.47111 1.84889 6.00889 2.08 5.54667C2.19556 5.2 2.42667 4.85333 2.77334 4.50667C3.12 4.16 3.46667 3.92889 3.81334 3.81333C4.27556 3.58222 4.73778 3.46667 5.2 3.46667H19.0667C19.5289 3.46667 19.9911 3.58222 20.4533 3.81333C20.8 3.92889 21.1467 4.16 21.4933 4.50667C21.84 4.85333 22.0711 5.2 22.1867 5.54667C22.4178 6.00889 22.5333 6.47111 22.5333 6.93333V22.5333C22.7644 22.5333 22.9956 22.4756 23.2267 22.36C23.4578 22.2444 23.6311 22.1289 23.7467 22.0133C23.8622 21.8978 23.9778 21.7244 24.0933 21.4933C24.2089 21.2622 24.2667 21.0311 24.2667 20.8V3.46667C24.2667 3.23556 24.2089 3.00444 24.0933 2.77333C23.9778 2.54222 23.8622 2.36889 23.7467 2.25333C23.6311 2.13778 23.4578 2.02222 23.2267 1.90667C22.9956 1.79111 22.7644 1.73333 22.5333 1.73333H8.66667C8.43556 1.73333 8.20445 1.79111 7.97334 1.90667C7.74223 2.02222 7.56889 2.13778 7.45334 2.25333C7.33778 2.36889 7.22223 2.54222 7.10667 2.77333C6.99112 3.00444 6.93334 3.23556 6.93334 3.46667H5.2C5.2 3.00444 5.31556 2.54222 5.54667 2.08C5.66223 1.73333 5.89334 1.38667 6.24 1.04C6.58667 0.693333 6.93334 0.462222 7.28 0.346667C7.74223 0.115556 8.20445 0 8.66667 0Z" fill="white"/>
<path fill-rule="evenodd" clip-rule="evenodd" d="M1.73333 10.4V9.53335C1.73333 9.30224 1.79111 9.07113 1.90667 8.84002C2.13778 8.72446 2.36889 8.66669 2.6 8.66669C2.83111 8.66669 3.06222 8.72446 3.29333 8.84002C3.40889 9.07113 3.46667 9.30224 3.46667 9.53335V10.4H4.33333C4.56444 10.4 4.79556 10.4578 5.02667 10.5734C5.14222 10.8045 5.2 11.0356 5.2 11.2667C5.2 11.4978 5.14222 11.7289 5.02667 11.96C4.79556 12.0756 4.56444 12.1334 4.33333 12.1334H0.866667C0.635556 12.1334 0.404444 12.0756 0.173333 11.96C0.0577778 11.7289 0 11.4978 0 11.2667C0 11.0356 0.0577778 10.8045 0.173333 10.5734C0.404444 10.4578 0.635556 10.4 0.866667 10.4H1.73333ZM1.73333 15.6V14.7334C1.73333 14.5022 1.79111 14.2711 1.90667 14.04C2.13778 13.9245 2.36889 13.8667 2.6 13.8667C2.83111 13.8667 3.06222 13.9245 3.29333 14.04C3.40889 14.2711 3.46667 14.5022 3.46667 14.7334V15.6H4.33333C4.56444 15.6 4.79556 15.6578 5.02667 15.7734C5.14222 16.0045 5.2 16.2356 5.2 16.4667C5.2 16.6978 5.14222 16.9289 5.02667 17.16C4.79556 17.2756 4.56444 17.3334 4.33333 17.3334H0.866667C0.635556 17.3334 0.404444 17.2756 0.173333 17.16C0.0577778 16.9289 0 16.6978 0 16.4667C0 16.2356 0.0577778 16.0045 0.173333 15.7734C0.404444 15.6578 0.635556 15.6 0.866667 15.6H1.73333ZM1.90667 19.24C2.13778 19.1245 2.36889 19.0667 2.6 19.0667C2.83111 19.0667 3.06222 19.1245 3.29333 19.24C3.40889 19.4711 3.46667 19.7022 3.46667 19.9334V20.8H4.33333C4.56444 20.8 4.79556 20.8578 5.02667 20.9734C5.14222 21.2045 5.2 21.4356 5.2 21.6667C5.2 21.8978 5.14222 22.1289 5.02667 22.36C4.79556 22.4756 4.56444 22.5334 4.33333 22.5334H0.866667C0.635556 22.5334 0.404444 22.4756 0.173333 22.36C0.0577778 22.1289 0 21.8978 0 21.6667C0 21.4356 0.0577778 21.2045 0.173333 20.9734C0.404444 20.8578 0.635556 20.8 0.866667 20.8H1.73333V19.9334C1.73333 19.7022 1.79111 19.4711 1.90667 19.24Z" fill="white"/>
</svg>
