<svg width="21" height="21" viewBox="0 0 21 21" fill="none" xmlns="http://www.w3.org/2000/svg">
<path d="M2.21191 20.16C2.21191 20.16 0.586914 20.16 0.586914 18.535C0.586914 16.91 2.21191 12.035 10.3369 12.035C18.4619 12.035 20.0869 16.91 20.0869 18.535C20.0869 20.16 18.4619 20.16 18.4619 20.16H2.21191ZM10.3369 10.41C11.6298 10.41 12.8698 9.89636 13.7841 8.98212C14.6983 8.06788 15.2119 6.8279 15.2119 5.53497C15.2119 4.24204 14.6983 3.00207 13.7841 2.08783C12.8698 1.17359 11.6298 0.659973 10.3369 0.659973C9.04398 0.659973 7.80401 1.17359 6.88977 2.08783C5.97553 3.00207 5.46191 4.24204 5.46191 5.53497C5.46191 6.8279 5.97553 8.06788 6.88977 8.98212C7.80401 9.89636 9.04398 10.41 10.3369 10.41Z" fill="black"/>
</svg>
